<svg width="128" height="125" viewBox="0 0 128 125" fill="none" xmlns="http://www.w3.org/2000/svg">
<path d="M20.995 83.525C20.995 95.1417 14.62 102.933 1.87 106.9C0.736667 106.56 0.17 106.107 0.17 105.54C0.17 105.03 0.736667 104.407 1.87 103.67C9.23667 98.9667 12.92 92.2517 12.92 83.525V39.58C12.6933 38.2767 11.3617 37.4267 8.925 37.03H3.4V33.205H30.43V37.03H24.48C22.95 37.2567 21.7883 38.1067 20.995 39.58V83.525ZM44.6172 96.12C41.6305 96.12 38.9472 95.5833 36.5672 94.51C34.2339 93.39 32.3905 91.85 31.0372 89.89C29.6839 87.93 29.0072 85.6433 29.0072 83.03C29.0072 80.0433 29.8472 77.5 31.5272 75.4C33.2539 73.3 35.7739 71.62 39.0872 70.36C38.6672 68.9133 38.3405 67.5133 38.1072 66.16C37.8739 64.8067 37.7572 63.5467 37.7572 62.38C37.7572 59.9533 38.1305 57.83 38.8772 56.01C39.6239 54.19 40.6972 52.6733 42.0972 51.46C43.4972 50.2 45.1772 49.2667 47.1372 48.66C49.1439 48.0067 51.3605 47.68 53.7872 47.68C55.4672 47.68 56.9605 47.82 58.2672 48.1C59.6205 48.38 60.7639 48.8233 61.6972 49.43C62.6305 49.99 63.3305 50.7133 63.7972 51.6C64.3105 52.4867 64.5672 53.5367 64.5672 54.75C64.5672 56.6167 64.0772 58.0867 63.0972 59.16C62.1639 60.2333 60.9272 60.77 59.3872 60.77C59.0139 60.77 58.6405 60.7467 58.2672 60.7C57.8939 60.6067 57.5205 60.49 57.1472 60.35C57.3805 59.3233 57.4972 58.2733 57.4972 57.2C57.4972 56.08 57.3339 55.1467 57.0072 54.4C56.6805 53.6067 56.1439 53 55.3972 52.58C54.6505 52.16 53.6472 51.95 52.3872 51.95C49.9139 51.95 48.0705 52.72 46.8572 54.26C45.6439 55.8 45.0372 58.0167 45.0372 60.91C45.0372 63.6633 45.5272 66.5333 46.5072 69.52C47.5339 72.46 48.9339 75.3067 50.7072 78.06C52.5272 80.7667 54.6039 83.24 56.9372 85.48C57.9172 84.08 58.6172 82.5867 59.0372 81C59.5039 79.3667 59.7372 77.9667 59.7372 76.8C59.8772 74.4667 59.0605 72.2267 57.2872 70.08C57.8939 69.7067 58.5472 69.4267 59.2472 69.24C59.9939 69.0533 60.8105 68.96 61.6972 68.96C63.5172 68.96 64.8239 69.4733 65.6172 70.5C66.4572 71.5267 66.8772 73.0433 66.8772 75.05C66.8772 76.5433 66.5972 78.1067 66.0372 79.74C65.4772 81.3267 64.7305 82.8433 63.7972 84.29C62.9105 85.7367 61.9539 87.0433 60.9272 88.21C62.0472 88.77 63.1439 89.2367 64.2172 89.61C65.3372 89.9367 66.3639 90.1 67.2972 90.1C67.9039 90.1 68.5105 90.0533 69.1172 89.96C69.7239 89.82 70.2372 89.68 70.6572 89.54C70.7972 89.8667 70.8905 90.2167 70.9372 90.59C71.0305 90.9167 71.0772 91.2433 71.0772 91.57C71.0772 93.0167 70.5639 94.1367 69.5372 94.93C68.5572 95.7233 67.1805 96.12 65.4072 96.12C62.7005 96.12 59.6205 95.07 56.1672 92.97C54.3939 94.0433 52.5505 94.8367 50.6372 95.35C48.7239 95.8633 46.7172 96.12 44.6172 96.12ZM46.3672 91.57C47.5805 91.57 48.7239 91.43 49.7972 91.15C50.8705 90.87 51.7105 90.4967 52.3172 90.03C49.9839 88.0233 47.7439 85.62 45.5972 82.82C43.4505 80.02 41.7005 77.1267 40.3472 74.14C39.0872 74.98 38.1305 76.0067 37.4772 77.22C36.8239 78.4333 36.4972 79.88 36.4972 81.56C36.4972 83.52 36.8939 85.2467 37.6872 86.74C38.5272 88.2333 39.6705 89.4233 41.1172 90.31C42.6105 91.15 44.3605 91.57 46.3672 91.57ZM104.646 37.625C104.646 37.625 110.483 37.88 122.156 38.39L122.666 53.86H119.946L117.056 42.725C113.996 41.4217 110.369 40.77 106.176 40.77C99.3193 40.77 93.6243 43.0367 89.0909 47.57C84.6143 52.0467 82.3759 58.5917 82.3759 67.205C82.3759 75.8183 84.5576 82.1933 88.9209 86.33C93.3409 90.41 98.9793 92.45 105.836 92.45C110.426 92.45 114.534 91.77 118.161 90.41L121.306 80.635L123.686 80.72L123.176 93.47C116.659 94.83 111.049 95.51 106.346 95.51C101.699 95.51 97.8459 95.255 94.7859 94.745C91.7826 94.235 88.8359 93.3283 85.9459 92.025C83.0559 90.7217 80.5909 89.05 78.5509 87.01C76.5676 84.97 74.9526 82.335 73.7059 79.105C72.5159 75.8183 71.9209 71.8233 71.9209 67.12C71.9209 62.4167 72.8276 58.0817 74.6409 54.115C76.5109 50.0917 79.0326 46.9183 82.2059 44.595C88.4959 39.9483 95.9759 37.625 104.646 37.625Z" fill="url(#paint0_linear_172_2)"/>
<path d="M25.7188 104.441V107.945C25.5742 108.105 25.3516 108.277 25.0508 108.461C24.7539 108.641 24.3789 108.795 23.9258 108.924C23.4727 109.053 22.9395 109.117 22.3262 109.117C21.7598 109.117 21.2461 109.027 20.7852 108.848C20.3242 108.664 19.9277 108.396 19.5957 108.045C19.2676 107.689 19.0137 107.256 18.834 106.744C18.6582 106.229 18.5703 105.639 18.5703 104.975V104.5C18.5703 103.836 18.6602 103.246 18.8398 102.73C19.0195 102.215 19.2715 101.781 19.5957 101.43C19.9238 101.074 20.3086 100.805 20.75 100.621C21.1953 100.438 21.6836 100.346 22.2148 100.346C23 100.346 23.6387 100.471 24.1309 100.721C24.623 100.967 24.9961 101.309 25.25 101.746C25.5039 102.18 25.6582 102.682 25.7129 103.252H23.7383C23.6992 102.971 23.625 102.732 23.5156 102.537C23.4102 102.338 23.2578 102.188 23.0586 102.086C22.8594 101.98 22.6016 101.928 22.2852 101.928C22.0391 101.928 21.8145 101.98 21.6113 102.086C21.4121 102.191 21.2422 102.352 21.1016 102.566C20.9609 102.777 20.8516 103.043 20.7734 103.363C20.6992 103.684 20.6621 104.059 20.6621 104.488V104.975C20.6621 105.4 20.6973 105.773 20.7676 106.094C20.8418 106.414 20.9512 106.682 21.0957 106.896C21.2441 107.107 21.4316 107.268 21.6582 107.377C21.8887 107.482 22.1602 107.535 22.4727 107.535C22.6914 107.535 22.8789 107.518 23.0352 107.482C23.1914 107.443 23.3203 107.396 23.4219 107.342C23.5273 107.283 23.6074 107.229 23.6621 107.178V105.854H22.2324V104.441H25.7188ZM29.2965 109.117C28.7809 109.117 28.3199 109.037 27.9137 108.877C27.5074 108.713 27.1637 108.488 26.8824 108.203C26.6051 107.918 26.3922 107.59 26.2437 107.219C26.0992 106.848 26.027 106.455 26.027 106.041V105.818C26.027 105.354 26.0914 104.924 26.2203 104.529C26.3492 104.131 26.5406 103.783 26.7945 103.486C27.0484 103.189 27.3668 102.959 27.7496 102.795C28.1324 102.627 28.5777 102.543 29.0855 102.543C29.5348 102.543 29.9371 102.615 30.2926 102.76C30.648 102.904 30.9488 103.111 31.1949 103.381C31.4449 103.65 31.6344 103.977 31.7633 104.359C31.8961 104.742 31.9625 105.172 31.9625 105.648V106.451H26.7828V105.215H30.0348V105.062C30.0387 104.852 30.0016 104.672 29.9234 104.523C29.8492 104.375 29.7398 104.262 29.5953 104.184C29.4508 104.105 29.275 104.066 29.068 104.066C28.8531 104.066 28.6754 104.113 28.5348 104.207C28.398 104.301 28.2906 104.43 28.2125 104.594C28.1383 104.754 28.0855 104.939 28.0543 105.15C28.023 105.361 28.0074 105.584 28.0074 105.818V106.041C28.0074 106.275 28.0387 106.488 28.1012 106.68C28.1676 106.871 28.2613 107.035 28.3824 107.172C28.5074 107.305 28.6559 107.408 28.8277 107.482C29.0035 107.557 29.2027 107.594 29.4254 107.594C29.6949 107.594 29.9605 107.543 30.2223 107.441C30.484 107.34 30.7086 107.172 30.8961 106.938L31.7926 108.004C31.6637 108.188 31.4801 108.365 31.2418 108.537C31.0074 108.709 30.7262 108.85 30.398 108.959C30.0699 109.064 29.7027 109.117 29.2965 109.117ZM35.4875 107.219C35.4875 107.109 35.4504 107.016 35.3762 106.938C35.3059 106.855 35.1809 106.781 35.0012 106.715C34.8215 106.645 34.5695 106.574 34.2453 106.504C33.9367 106.438 33.6457 106.35 33.3723 106.24C33.1027 106.131 32.8664 105.998 32.6633 105.842C32.4602 105.686 32.3 105.5 32.1828 105.285C32.0695 105.07 32.0129 104.824 32.0129 104.547C32.0129 104.277 32.0695 104.023 32.1828 103.785C32.3 103.543 32.4699 103.33 32.6926 103.146C32.9191 102.959 33.1945 102.812 33.5187 102.707C33.843 102.598 34.2121 102.543 34.6262 102.543C35.1965 102.543 35.6887 102.631 36.1027 102.807C36.5168 102.979 36.8352 103.221 37.0578 103.533C37.2844 103.842 37.3977 104.199 37.3977 104.605H35.423C35.423 104.445 35.3957 104.309 35.341 104.195C35.2902 104.082 35.2062 103.996 35.0891 103.938C34.9719 103.875 34.8156 103.844 34.6203 103.844C34.4836 103.844 34.3586 103.869 34.2453 103.92C34.1359 103.971 34.048 104.041 33.9816 104.131C33.9152 104.221 33.882 104.326 33.882 104.447C33.882 104.533 33.9016 104.611 33.9406 104.682C33.9836 104.748 34.048 104.811 34.134 104.869C34.2199 104.924 34.3293 104.975 34.4621 105.021C34.5949 105.064 34.7551 105.104 34.9426 105.139C35.3684 105.217 35.7668 105.328 36.1379 105.473C36.509 105.617 36.8098 105.822 37.0402 106.088C37.2746 106.354 37.3918 106.711 37.3918 107.16C37.3918 107.441 37.3273 107.701 37.1984 107.939C37.0695 108.174 36.884 108.381 36.6418 108.561C36.3996 108.736 36.1086 108.873 35.7687 108.971C35.4289 109.068 35.0461 109.117 34.6203 109.117C34.0148 109.117 33.5031 109.01 33.0852 108.795C32.6672 108.576 32.3508 108.303 32.1359 107.975C31.925 107.643 31.8195 107.307 31.8195 106.967H33.6594C33.6672 107.162 33.7141 107.322 33.8 107.447C33.8898 107.572 34.009 107.664 34.1574 107.723C34.3059 107.781 34.4777 107.811 34.673 107.811C34.8527 107.811 35.0012 107.785 35.1184 107.734C35.2395 107.684 35.3312 107.615 35.3937 107.529C35.4562 107.439 35.4875 107.336 35.4875 107.219ZM41.0574 102.66V104.031H37.2371V102.66H41.0574ZM38.0398 101.084H40.0145V106.932C40.0145 107.1 40.034 107.23 40.073 107.324C40.1121 107.414 40.1785 107.479 40.2723 107.518C40.3699 107.553 40.4988 107.57 40.659 107.57C40.7723 107.57 40.866 107.568 40.9402 107.564C41.0145 107.557 41.0848 107.547 41.1512 107.535V108.947C40.9832 109.002 40.8074 109.043 40.6238 109.07C40.4402 109.102 40.2449 109.117 40.0379 109.117C39.616 109.117 39.2547 109.051 38.9539 108.918C38.657 108.785 38.4305 108.576 38.2742 108.291C38.118 108.006 38.0398 107.635 38.0398 107.178V101.084ZM44.5355 107.406V104.793C44.5355 104.613 44.5102 104.459 44.4594 104.33C44.4086 104.201 44.3285 104.102 44.2191 104.031C44.1098 103.957 43.9633 103.92 43.7797 103.92C43.6312 103.92 43.5043 103.945 43.3988 103.996C43.2934 104.047 43.2133 104.123 43.1586 104.225C43.1039 104.326 43.0766 104.455 43.0766 104.611H41.102C41.102 104.318 41.1664 104.047 41.2953 103.797C41.4281 103.543 41.6156 103.322 41.8578 103.135C42.1039 102.947 42.3969 102.803 42.7367 102.701C43.0805 102.596 43.4633 102.543 43.8852 102.543C44.3891 102.543 44.8383 102.627 45.2328 102.795C45.6312 102.963 45.9457 103.215 46.1762 103.551C46.4066 103.883 46.5219 104.301 46.5219 104.805V107.4C46.5219 107.814 46.5453 108.129 46.5922 108.344C46.6391 108.555 46.7055 108.74 46.7914 108.9V109H44.8109C44.7172 108.805 44.6469 108.566 44.6 108.285C44.557 108 44.5355 107.707 44.5355 107.406ZM44.7758 105.127L44.7875 106.182H43.9145C43.7309 106.182 43.5746 106.207 43.4457 106.258C43.3207 106.309 43.2191 106.379 43.141 106.469C43.0668 106.555 43.0121 106.652 42.977 106.762C42.9457 106.871 42.9301 106.986 42.9301 107.107C42.9301 107.225 42.9574 107.33 43.0121 107.424C43.0707 107.514 43.1488 107.584 43.2465 107.635C43.3441 107.686 43.4535 107.711 43.5746 107.711C43.7934 107.711 43.9789 107.67 44.1312 107.588C44.2875 107.502 44.4066 107.398 44.4887 107.277C44.5707 107.156 44.6117 107.043 44.6117 106.938L45.0453 107.746C44.9672 107.902 44.8773 108.061 44.7758 108.221C44.6781 108.381 44.5551 108.529 44.4066 108.666C44.2621 108.799 44.0844 108.908 43.8734 108.994C43.6625 109.076 43.4066 109.117 43.1059 109.117C42.7152 109.117 42.3559 109.037 42.0277 108.877C41.7035 108.717 41.4437 108.494 41.2484 108.209C41.0531 107.92 40.9555 107.588 40.9555 107.213C40.9555 106.885 41.0141 106.592 41.1312 106.334C41.2523 106.076 41.434 105.857 41.6762 105.678C41.9184 105.498 42.227 105.361 42.602 105.268C42.977 105.174 43.4184 105.127 43.9262 105.127H44.7758ZM44.9926 99.9883L46.0824 100.053C46.0824 100.338 46.0238 100.602 45.9066 100.844C45.7934 101.086 45.6352 101.281 45.432 101.43C45.2289 101.578 44.9945 101.652 44.7289 101.652C44.5492 101.652 44.3891 101.629 44.2484 101.582C44.1117 101.531 43.9828 101.473 43.8617 101.406C43.7445 101.34 43.6234 101.283 43.4984 101.236C43.3773 101.186 43.2426 101.16 43.0941 101.16C42.973 101.16 42.8676 101.203 42.7777 101.289C42.6918 101.375 42.6488 101.508 42.6488 101.688L41.5473 101.629C41.5473 101.352 41.6039 101.092 41.7172 100.85C41.8344 100.604 41.9945 100.406 42.1977 100.258C42.4008 100.105 42.6352 100.029 42.9008 100.029C43.0531 100.029 43.1977 100.055 43.3344 100.105C43.4711 100.152 43.6039 100.209 43.7328 100.275C43.8617 100.338 43.9906 100.395 44.1195 100.445C44.2523 100.492 44.3891 100.516 44.5297 100.516C44.6547 100.516 44.7621 100.473 44.852 100.387C44.9457 100.301 44.9926 100.168 44.9926 99.9883ZM46.7715 105.895V105.771C46.7715 105.307 46.8379 104.879 46.9707 104.488C47.1035 104.094 47.2988 103.752 47.5566 103.463C47.8145 103.174 48.1328 102.949 48.5117 102.789C48.8906 102.625 49.3281 102.543 49.8242 102.543C50.3242 102.543 50.7637 102.625 51.1426 102.789C51.5254 102.949 51.8457 103.174 52.1035 103.463C52.3613 103.752 52.5566 104.094 52.6895 104.488C52.8223 104.879 52.8887 105.307 52.8887 105.771V105.895C52.8887 106.355 52.8223 106.783 52.6895 107.178C52.5566 107.568 52.3613 107.91 52.1035 108.203C51.8457 108.492 51.5273 108.717 51.1484 108.877C50.7695 109.037 50.332 109.117 49.8359 109.117C49.3398 109.117 48.9004 109.037 48.5176 108.877C48.1348 108.717 47.8145 108.492 47.5566 108.203C47.2988 107.91 47.1035 107.568 46.9707 107.178C46.8379 106.783 46.7715 106.355 46.7715 105.895ZM48.7461 105.771V105.895C48.7461 106.133 48.7637 106.355 48.7988 106.562C48.834 106.77 48.8926 106.951 48.9746 107.107C49.0566 107.26 49.168 107.379 49.3086 107.465C49.4492 107.551 49.625 107.594 49.8359 107.594C50.043 107.594 50.2148 107.551 50.3516 107.465C50.4922 107.379 50.6035 107.26 50.6855 107.107C50.7676 106.951 50.8262 106.77 50.8613 106.562C50.8965 106.355 50.9141 106.133 50.9141 105.895V105.771C50.9141 105.541 50.8965 105.324 50.8613 105.121C50.8262 104.914 50.7676 104.732 50.6855 104.576C50.6035 104.416 50.4922 104.291 50.3516 104.201C50.2109 104.111 50.0352 104.066 49.8242 104.066C49.6172 104.066 49.4434 104.111 49.3027 104.201C49.166 104.291 49.0566 104.416 48.9746 104.576C48.8926 104.732 48.834 104.914 48.7988 105.121C48.7637 105.324 48.7461 105.541 48.7461 105.771ZM59.2004 107.547V100H61.1867V109H59.4055L59.2004 107.547ZM55.3098 105.906V105.783C55.3098 105.303 55.3625 104.865 55.468 104.471C55.5734 104.072 55.7297 103.73 55.9367 103.445C56.1437 103.156 56.4016 102.934 56.7102 102.777C57.0187 102.621 57.3742 102.543 57.7766 102.543C58.1359 102.543 58.4504 102.627 58.7199 102.795C58.9895 102.959 59.2199 103.189 59.4113 103.486C59.6027 103.783 59.759 104.131 59.8801 104.529C60.0012 104.924 60.093 105.35 60.1555 105.807V105.953C60.093 106.383 60.0012 106.789 59.8801 107.172C59.759 107.551 59.6027 107.887 59.4113 108.18C59.2199 108.473 58.9875 108.703 58.7141 108.871C58.4445 109.035 58.1281 109.117 57.7648 109.117C57.3625 109.117 57.007 109.037 56.6984 108.877C56.3937 108.717 56.1379 108.492 55.9309 108.203C55.7277 107.914 55.5734 107.574 55.468 107.184C55.3625 106.793 55.3098 106.367 55.3098 105.906ZM57.2844 105.783V105.906C57.2844 106.145 57.3 106.365 57.3312 106.568C57.3625 106.771 57.4152 106.951 57.4895 107.107C57.5676 107.26 57.6691 107.379 57.7941 107.465C57.923 107.551 58.0812 107.594 58.2687 107.594C58.5227 107.594 58.7316 107.533 58.8957 107.412C59.0637 107.291 59.1867 107.119 59.2648 106.896C59.3469 106.674 59.382 106.412 59.3703 106.111V105.648C59.3781 105.391 59.3605 105.164 59.3176 104.969C59.2746 104.77 59.2062 104.604 59.1125 104.471C59.0227 104.338 58.9074 104.238 58.7668 104.172C58.6301 104.102 58.468 104.066 58.2805 104.066C58.0969 104.066 57.9406 104.109 57.8117 104.195C57.6867 104.281 57.5852 104.402 57.507 104.559C57.4289 104.711 57.3723 104.893 57.3371 105.104C57.302 105.311 57.2844 105.537 57.2844 105.783ZM64.7762 109.117C64.2605 109.117 63.7996 109.037 63.3934 108.877C62.9871 108.713 62.6434 108.488 62.3621 108.203C62.0848 107.918 61.8719 107.59 61.7234 107.219C61.5789 106.848 61.5066 106.455 61.5066 106.041V105.818C61.5066 105.354 61.5711 104.924 61.7 104.529C61.8289 104.131 62.0203 103.783 62.2742 103.486C62.5281 103.189 62.8465 102.959 63.2293 102.795C63.6121 102.627 64.0574 102.543 64.5652 102.543C65.0145 102.543 65.4168 102.615 65.7723 102.76C66.1277 102.904 66.4285 103.111 66.6746 103.381C66.9246 103.65 67.1141 103.977 67.243 104.359C67.3758 104.742 67.4422 105.172 67.4422 105.648V106.451H62.2625V105.215H65.5145V105.062C65.5184 104.852 65.4813 104.672 65.4031 104.523C65.3289 104.375 65.2195 104.262 65.075 104.184C64.9305 104.105 64.7547 104.066 64.5477 104.066C64.3328 104.066 64.1551 104.113 64.0145 104.207C63.8777 104.301 63.7703 104.43 63.6922 104.594C63.618 104.754 63.5652 104.939 63.534 105.15C63.5027 105.361 63.4871 105.584 63.4871 105.818V106.041C63.4871 106.275 63.5184 106.488 63.5809 106.68C63.6473 106.871 63.741 107.035 63.8621 107.172C63.9871 107.305 64.1355 107.408 64.3074 107.482C64.4832 107.557 64.6824 107.594 64.9051 107.594C65.1746 107.594 65.4402 107.543 65.702 107.441C65.9637 107.34 66.1883 107.172 66.3758 106.938L67.2723 108.004C67.1434 108.188 66.9598 108.365 66.7215 108.537C66.4871 108.709 66.2059 108.85 65.8777 108.959C65.5496 109.064 65.1824 109.117 64.7762 109.117ZM70.127 100.469H73.4844C74.1406 100.469 74.7109 100.566 75.1953 100.762C75.6797 100.957 76.0527 101.246 76.3145 101.629C76.5801 102.012 76.7129 102.484 76.7129 103.047C76.7129 103.535 76.6367 103.943 76.4844 104.271C76.332 104.6 76.1191 104.871 75.8457 105.086C75.5762 105.297 75.2617 105.471 74.9023 105.607L74.2285 105.988H71.4102L71.3984 104.4H73.4844C73.7461 104.4 73.9629 104.354 74.1348 104.26C74.3066 104.166 74.4355 104.033 74.5215 103.861C74.6113 103.686 74.6562 103.477 74.6562 103.234C74.6562 102.988 74.6113 102.777 74.5215 102.602C74.4316 102.426 74.2988 102.291 74.123 102.197C73.9512 102.104 73.7383 102.057 73.4844 102.057H72.1836V109H70.127V100.469ZM74.7969 109L72.9102 105.227L75.0898 105.215L77 108.912V109H74.7969ZM79.3473 102.66V109H77.3668V102.66H79.3473ZM77.2496 101.025C77.2496 100.744 77.3512 100.514 77.5543 100.334C77.7574 100.154 78.0211 100.064 78.3453 100.064C78.6695 100.064 78.9332 100.154 79.1363 100.334C79.3395 100.514 79.441 100.744 79.441 101.025C79.441 101.307 79.3395 101.537 79.1363 101.717C78.9332 101.896 78.6695 101.986 78.3453 101.986C78.0211 101.986 77.7574 101.896 77.5543 101.717C77.3512 101.537 77.2496 101.307 77.2496 101.025ZM83.2883 107.219C83.2883 107.109 83.2512 107.016 83.177 106.938C83.1066 106.855 82.9816 106.781 82.802 106.715C82.6223 106.645 82.3703 106.574 82.0461 106.504C81.7375 106.438 81.4465 106.35 81.173 106.24C80.9035 106.131 80.6672 105.998 80.4641 105.842C80.2609 105.686 80.1008 105.5 79.9836 105.285C79.8703 105.07 79.8137 104.824 79.8137 104.547C79.8137 104.277 79.8703 104.023 79.9836 103.785C80.1008 103.543 80.2707 103.33 80.4934 103.146C80.7199 102.959 80.9953 102.812 81.3195 102.707C81.6438 102.598 82.0129 102.543 82.427 102.543C82.9973 102.543 83.4895 102.631 83.9035 102.807C84.3176 102.979 84.6359 103.221 84.8586 103.533C85.0852 103.842 85.1984 104.199 85.1984 104.605H83.2238C83.2238 104.445 83.1965 104.309 83.1418 104.195C83.091 104.082 83.007 103.996 82.8898 103.938C82.7727 103.875 82.6164 103.844 82.4211 103.844C82.2844 103.844 82.1594 103.869 82.0461 103.92C81.9367 103.971 81.8488 104.041 81.7824 104.131C81.716 104.221 81.6828 104.326 81.6828 104.447C81.6828 104.533 81.7023 104.611 81.7414 104.682C81.7844 104.748 81.8488 104.811 81.9348 104.869C82.0207 104.924 82.1301 104.975 82.2629 105.021C82.3957 105.064 82.5559 105.104 82.7434 105.139C83.1691 105.217 83.5676 105.328 83.9387 105.473C84.3098 105.617 84.6105 105.822 84.841 106.088C85.0754 106.354 85.1926 106.711 85.1926 107.16C85.1926 107.441 85.1281 107.701 84.9992 107.939C84.8703 108.174 84.6848 108.381 84.4426 108.561C84.2004 108.736 83.9094 108.873 83.5695 108.971C83.2297 109.068 82.8469 109.117 82.4211 109.117C81.8156 109.117 81.3039 109.01 80.8859 108.795C80.468 108.576 80.1516 108.303 79.9367 107.975C79.7258 107.643 79.6203 107.307 79.6203 106.967H81.4602C81.468 107.162 81.5148 107.322 81.6008 107.447C81.6906 107.572 81.8098 107.664 81.9582 107.723C82.1066 107.781 82.2785 107.811 82.4738 107.811C82.6535 107.811 82.802 107.785 82.9191 107.734C83.0402 107.684 83.132 107.615 83.1945 107.529C83.257 107.439 83.2883 107.336 83.2883 107.219ZM88.1961 107.594C88.3797 107.594 88.5359 107.561 88.6648 107.494C88.7977 107.424 88.8973 107.326 88.9637 107.201C89.034 107.072 89.0672 106.918 89.0633 106.738H90.9207C90.9246 107.215 90.8074 107.633 90.5691 107.992C90.3348 108.348 90.0145 108.625 89.6082 108.824C89.2059 109.02 88.7508 109.117 88.243 109.117C87.7469 109.117 87.3133 109.037 86.9422 108.877C86.5711 108.713 86.2605 108.486 86.0105 108.197C85.7645 107.904 85.5789 107.562 85.4539 107.172C85.3328 106.781 85.2723 106.357 85.2723 105.9V105.766C85.2723 105.309 85.3328 104.885 85.4539 104.494C85.5789 104.1 85.7645 103.758 86.0105 103.469C86.2605 103.176 86.5691 102.949 86.9363 102.789C87.3074 102.625 87.7391 102.543 88.2312 102.543C88.7586 102.543 89.2234 102.643 89.6258 102.842C90.032 103.041 90.3504 103.33 90.5809 103.709C90.8113 104.088 90.9246 104.547 90.9207 105.086H89.0633C89.0672 104.895 89.0379 104.723 88.9754 104.57C88.9129 104.418 88.8152 104.297 88.6824 104.207C88.5535 104.113 88.3875 104.066 88.1844 104.066C87.9812 104.066 87.8172 104.111 87.6922 104.201C87.5672 104.291 87.4715 104.416 87.4051 104.576C87.3426 104.732 87.2996 104.912 87.2762 105.115C87.2566 105.318 87.2469 105.535 87.2469 105.766V105.9C87.2469 106.135 87.2566 106.355 87.2762 106.562C87.2996 106.766 87.3445 106.945 87.4109 107.102C87.4773 107.254 87.573 107.375 87.698 107.465C87.823 107.551 87.9891 107.594 88.1961 107.594ZM90.9184 105.895V105.771C90.9184 105.307 90.9848 104.879 91.1176 104.488C91.2504 104.094 91.4457 103.752 91.7035 103.463C91.9613 103.174 92.2797 102.949 92.6586 102.789C93.0375 102.625 93.475 102.543 93.9711 102.543C94.4711 102.543 94.9105 102.625 95.2895 102.789C95.6723 102.949 95.9926 103.174 96.2504 103.463C96.5082 103.752 96.7035 104.094 96.8363 104.488C96.9691 104.879 97.0355 105.307 97.0355 105.771V105.895C97.0355 106.355 96.9691 106.783 96.8363 107.178C96.7035 107.568 96.5082 107.91 96.2504 108.203C95.9926 108.492 95.6742 108.717 95.2953 108.877C94.9164 109.037 94.4789 109.117 93.9828 109.117C93.4867 109.117 93.0473 109.037 92.6645 108.877C92.2816 108.717 91.9613 108.492 91.7035 108.203C91.4457 107.91 91.2504 107.568 91.1176 107.178C90.9848 106.783 90.9184 106.355 90.9184 105.895ZM92.893 105.771V105.895C92.893 106.133 92.9105 106.355 92.9457 106.562C92.9809 106.77 93.0395 106.951 93.1215 107.107C93.2035 107.26 93.3148 107.379 93.4555 107.465C93.5961 107.551 93.7719 107.594 93.9828 107.594C94.1898 107.594 94.3617 107.551 94.4984 107.465C94.6391 107.379 94.7504 107.26 94.8324 107.107C94.9145 106.951 94.973 106.77 95.0082 106.562C95.0434 106.355 95.0609 106.133 95.0609 105.895V105.771C95.0609 105.541 95.0434 105.324 95.0082 105.121C94.973 104.914 94.9145 104.732 94.8324 104.576C94.7504 104.416 94.6391 104.291 94.4984 104.201C94.3578 104.111 94.182 104.066 93.9711 104.066C93.7641 104.066 93.5902 104.111 93.4496 104.201C93.3129 104.291 93.2035 104.416 93.1215 104.576C93.0395 104.732 92.9809 104.914 92.9457 105.121C92.9105 105.324 92.893 105.541 92.893 105.771ZM100.637 107.219C100.637 107.109 100.6 107.016 100.525 106.938C100.455 106.855 100.33 106.781 100.15 106.715C99.9707 106.645 99.7188 106.574 99.3945 106.504C99.0859 106.438 98.7949 106.35 98.5215 106.24C98.252 106.131 98.0156 105.998 97.8125 105.842C97.6094 105.686 97.4492 105.5 97.332 105.285C97.2188 105.07 97.1621 104.824 97.1621 104.547C97.1621 104.277 97.2188 104.023 97.332 103.785C97.4492 103.543 97.6191 103.33 97.8418 103.146C98.0684 102.959 98.3438 102.812 98.668 102.707C98.9922 102.598 99.3613 102.543 99.7754 102.543C100.346 102.543 100.838 102.631 101.252 102.807C101.666 102.979 101.984 103.221 102.207 103.533C102.434 103.842 102.547 104.199 102.547 104.605H100.572C100.572 104.445 100.545 104.309 100.49 104.195C100.439 104.082 100.355 103.996 100.238 103.938C100.121 103.875 99.9648 103.844 99.7695 103.844C99.6328 103.844 99.5078 103.869 99.3945 103.92C99.2852 103.971 99.1973 104.041 99.1309 104.131C99.0645 104.221 99.0312 104.326 99.0312 104.447C99.0312 104.533 99.0508 104.611 99.0898 104.682C99.1328 104.748 99.1973 104.811 99.2832 104.869C99.3691 104.924 99.4785 104.975 99.6113 105.021C99.7441 105.064 99.9043 105.104 100.092 105.139C100.518 105.217 100.916 105.328 101.287 105.473C101.658 105.617 101.959 105.822 102.189 106.088C102.424 106.354 102.541 106.711 102.541 107.16C102.541 107.441 102.477 107.701 102.348 107.939C102.219 108.174 102.033 108.381 101.791 108.561C101.549 108.736 101.258 108.873 100.918 108.971C100.578 109.068 100.195 109.117 99.7695 109.117C99.1641 109.117 98.6523 109.01 98.2344 108.795C97.8164 108.576 97.5 108.303 97.2852 107.975C97.0742 107.643 96.9688 107.307 96.9688 106.967H98.8086C98.8164 107.162 98.8633 107.322 98.9492 107.447C99.0391 107.572 99.1582 107.664 99.3066 107.723C99.4551 107.781 99.627 107.811 99.8223 107.811C100.002 107.811 100.15 107.785 100.268 107.734C100.389 107.684 100.48 107.615 100.543 107.529C100.605 107.439 100.637 107.336 100.637 107.219Z" fill="#E2E2E2"/>
<defs>
<linearGradient id="paint0_linear_172_2" x1="64" y1="0" x2="64" y2="125" gradientUnits="userSpaceOnUse">
<stop stop-color="white"/>
<stop offset="0.770109" stop-color="#E2E2E2"/>
</linearGradient>
</defs>
</svg>
